<mxfile host="app.diagrams.net" modified="2024-06-28T13:15:04.231Z" agent="Mozilla/5.0 (X11; Linux x86_64) AppleWebKit/537.36 (KHTML, like Gecko) Chrome/126.0.0.0 Safari/537.36" version="24.6.4" etag="KeG5-GdexC5Vl6Fv62Qf" type="github">
  <diagram name="Page-1" id="HEXjeIwIEezqWGD8xMji">
    <mxGraphModel>
      <root>
        <mxCell id="0" />
        <mxCell id="1" parent="0" />
        <mxCell id="2" value="User" style="whiteSpace=wrap;strokeWidth=2;" vertex="1" parent="1">
          <mxGeometry x="50" width="49" height="32" as="geometry" />
        </mxCell>
        <mxCell id="3" value="Wearable Device" style="rounded=1;absoluteArcSize=1;arcSize=14;whiteSpace=wrap;strokeWidth=2;" vertex="1" parent="1">
          <mxGeometry x="6" y="99" width="137" height="32" as="geometry" />
        </mxCell>
        <mxCell id="4" value="IoT Platform" style="rhombus;strokeWidth=2;whiteSpace=wrap;" vertex="1" parent="1">
          <mxGeometry x="7" y="198" width="134" height="134" as="geometry" />
        </mxCell>
        <mxCell id="5" value="Insights" style="rounded=1;absoluteArcSize=1;arcSize=14;whiteSpace=wrap;strokeWidth=2;" vertex="1" parent="1">
          <mxGeometry x="39" y="399" width="70" height="32" as="geometry" />
        </mxCell>
        <mxCell id="6" value="User" style="whiteSpace=wrap;strokeWidth=2;" vertex="1" parent="1">
          <mxGeometry x="50" y="498" width="49" height="32" as="geometry" />
        </mxCell>
        <mxCell id="7" value="Use wearable device" style="curved=1;startArrow=none;endArrow=block;exitX=0.5;exitY=1;entryX=0.5;entryY=0;" edge="1" parent="1" source="2" target="3">
          <mxGeometry relative="1" as="geometry">
            <Array as="points" />
          </mxGeometry>
        </mxCell>
        <mxCell id="8" value="Collect data" style="curved=1;startArrow=none;endArrow=block;exitX=0.5;exitY=1;entryX=0.5;entryY=0;" edge="1" parent="1" source="3" target="4">
          <mxGeometry relative="1" as="geometry">
            <Array as="points" />
          </mxGeometry>
        </mxCell>
        <mxCell id="9" value="Analyze data" style="curved=1;startArrow=none;endArrow=block;exitX=0.5;exitY=1;entryX=0.5;entryY=0;" edge="1" parent="1" source="4" target="5">
          <mxGeometry relative="1" as="geometry">
            <Array as="points" />
          </mxGeometry>
        </mxCell>
        <mxCell id="10" value="Trigger actions" style="curved=1;startArrow=none;endArrow=block;exitX=0.5;exitY=1;entryX=0.5;entryY=0;" edge="1" parent="1" source="5" target="6">
          <mxGeometry relative="1" as="geometry">
            <Array as="points" />
          </mxGeometry>
        </mxCell>
      </root>
    </mxGraphModel>
  </diagram>
</mxfile>
